<svg xmlns="http://www.w3.org/2000/svg" xmlns:xlink="http://www.w3.org/1999/xlink" width="500" zoomAndPan="magnify" viewBox="0 0 375 374.999991" height="500" preserveAspectRatio="xMidYMid meet" version="1.0"><defs><g/><clipPath id="831acdfcbc"><path d="M 115 25.683594 L 349.683594 25.683594 L 349.683594 349.683594 L 115 349.683594 Z M 115 25.683594 " clip-rule="nonzero"/></clipPath><clipPath id="fb04bc09db"><path d="M 25.683594 115 L 260 115 L 260 260 L 25.683594 260 Z M 25.683594 115 " clip-rule="nonzero"/></clipPath></defs><g clip-path="url(#831acdfcbc)"><path fill="#38b6ff" d="M 250.128906 349.347656 L 124.902344 349.347656 C 119.496094 349.347656 115.109375 344.957031 115.109375 339.550781 L 115.109375 246.945312 L 125.792969 246.945312 L 125.792969 338.671875 L 249.242188 338.671875 L 249.242188 259.035156 C 249.242188 253.628906 253.628906 249.242188 259.035156 249.242188 L 338.664062 249.242188 L 338.664062 125.792969 L 259.035156 125.792969 C 253.628906 125.792969 249.242188 121.402344 249.242188 115.996094 L 249.242188 36.367188 L 125.792969 36.367188 L 125.792969 120.449219 L 115.109375 120.449219 L 115.109375 35.480469 C 115.109375 30.074219 119.496094 25.683594 124.902344 25.683594 L 250.128906 25.683594 C 255.535156 25.683594 259.925781 30.074219 259.925781 35.480469 L 259.925781 115.105469 L 339.550781 115.105469 C 344.957031 115.105469 349.347656 119.496094 349.347656 124.902344 L 349.347656 250.128906 C 349.347656 255.535156 344.957031 259.925781 339.550781 259.925781 L 259.925781 259.925781 L 259.925781 339.550781 C 259.925781 344.957031 255.535156 349.347656 250.128906 349.347656 Z M 250.128906 349.347656 " fill-opacity="1" fill-rule="nonzero"/></g><g clip-path="url(#fb04bc09db)"><path fill="#38b6ff" d="M 120.449219 115.105469 L 25.683594 115.105469 L 25.683594 120.449219 C 25.683594 197.363281 88.257812 259.925781 165.160156 259.925781 L 259.925781 259.925781 L 259.925781 254.582031 C 259.925781 177.679688 197.363281 115.105469 120.449219 115.105469 Z M 249.019531 247.023438 C 175.578125 220.6875 80.289062 151.246094 46.714844 125.792969 L 120.449219 125.792969 C 188.929688 125.792969 245.082031 179.511719 249.019531 247.023438 Z M 36.867188 131.765625 C 64.894531 153.285156 151.003906 217.152344 225.585938 249.25 L 165.160156 249.25 C 97.960938 249.242188 42.617188 197.496094 36.867188 131.765625 Z M 36.867188 131.765625 " fill-opacity="1" fill-rule="nonzero"/></g><g fill="#000000" fill-opacity="1"><g transform="translate(144.289742, 303.837167)"><g><path d="M 2.640625 -1.21875 L 4.234375 -1.21875 C 5.359375 -1.21875 6.222656 -1.539062 6.828125 -2.1875 C 7.441406 -2.832031 7.75 -3.71875 7.75 -4.84375 C 7.75 -5.96875 7.441406 -6.847656 6.828125 -7.484375 C 6.222656 -8.117188 5.359375 -8.4375 4.234375 -8.4375 L 2.640625 -8.4375 Z M 4.234375 -9.734375 C 5.796875 -9.734375 7.046875 -9.289062 7.984375 -8.40625 C 8.921875 -7.519531 9.390625 -6.328125 9.390625 -4.828125 C 9.390625 -3.335938 8.921875 -2.160156 7.984375 -1.296875 C 7.046875 -0.429688 5.796875 0 4.234375 0 L 1.046875 0 L 1.046875 -9.734375 Z M 4.234375 -9.734375 "/></g></g></g><g fill="#000000" fill-opacity="1"><g transform="translate(156.184225, 303.837167)"><g><path d="M 2.640625 -3.953125 L 2.640625 0 L 1.046875 0 L 1.046875 -9.734375 L 4.40625 -9.734375 C 5.507812 -9.734375 6.359375 -9.457031 6.953125 -8.90625 C 7.554688 -8.363281 7.859375 -7.671875 7.859375 -6.828125 C 7.859375 -6.179688 7.65625 -5.59375 7.25 -5.0625 C 6.851562 -4.539062 6.25 -4.203125 5.4375 -4.046875 L 8.015625 0 L 6.0625 0 L 3.625 -3.953125 Z M 2.640625 -8.484375 L 2.640625 -5.1875 L 4.40625 -5.1875 C 5.007812 -5.1875 5.460938 -5.332031 5.765625 -5.625 C 6.066406 -5.914062 6.21875 -6.316406 6.21875 -6.828125 C 6.21875 -7.347656 6.066406 -7.753906 5.765625 -8.046875 C 5.460938 -8.335938 5.007812 -8.484375 4.40625 -8.484375 Z M 2.640625 -8.484375 "/></g></g></g><g fill="#000000" fill-opacity="1"><g transform="translate(167.001316, 303.837167)"><g><path d="M 5.484375 -1.34375 C 6.460938 -1.34375 7.257812 -1.664062 7.875 -2.3125 C 8.5 -2.96875 8.8125 -3.820312 8.8125 -4.875 C 8.8125 -5.9375 8.5 -6.789062 7.875 -7.4375 C 7.257812 -8.082031 6.460938 -8.40625 5.484375 -8.40625 C 4.503906 -8.40625 3.703125 -8.082031 3.078125 -7.4375 C 2.460938 -6.789062 2.15625 -5.9375 2.15625 -4.875 C 2.15625 -3.820312 2.460938 -2.96875 3.078125 -2.3125 C 3.703125 -1.664062 4.503906 -1.34375 5.484375 -1.34375 Z M 5.5 0.09375 C 4.101562 0.09375 2.921875 -0.375 1.953125 -1.3125 C 0.992188 -2.25 0.515625 -3.4375 0.515625 -4.875 C 0.515625 -6.320312 0.992188 -7.515625 1.953125 -8.453125 C 2.921875 -9.390625 4.101562 -9.859375 5.5 -9.859375 C 6.894531 -9.859375 8.066406 -9.390625 9.015625 -8.453125 C 9.972656 -7.515625 10.453125 -6.320312 10.453125 -4.875 C 10.453125 -3.4375 9.972656 -2.25 9.015625 -1.3125 C 8.066406 -0.375 6.894531 0.09375 5.5 0.09375 Z M 5.5 0.09375 "/></g></g></g><g fill="#000000" fill-opacity="1"><g transform="translate(179.945221, 303.837167)"><g><path d="M 5.390625 0.078125 C 4.066406 0.078125 2.921875 -0.382812 1.953125 -1.3125 C 0.992188 -2.25 0.515625 -3.4375 0.515625 -4.875 C 0.515625 -6.320312 0.992188 -7.515625 1.953125 -8.453125 C 2.921875 -9.390625 4.097656 -9.859375 5.484375 -9.859375 C 6.523438 -9.859375 7.445312 -9.601562 8.25 -9.09375 C 9.0625 -8.582031 9.648438 -7.863281 10.015625 -6.9375 L 8.09375 -6.9375 C 7.570312 -7.914062 6.703125 -8.40625 5.484375 -8.40625 C 4.503906 -8.40625 3.703125 -8.082031 3.078125 -7.4375 C 2.460938 -6.789062 2.15625 -5.9375 2.15625 -4.875 C 2.15625 -3.820312 2.460938 -2.972656 3.078125 -2.328125 C 3.703125 -1.679688 4.476562 -1.359375 5.40625 -1.359375 C 6.332031 -1.359375 7.066406 -1.601562 7.609375 -2.09375 C 8.148438 -2.582031 8.476562 -3.25 8.59375 -4.09375 L 4.9375 -4.09375 L 4.9375 -5.328125 L 10.296875 -5.328125 L 10.296875 -4.09375 C 10.148438 -2.925781 9.628906 -1.9375 8.734375 -1.125 C 7.835938 -0.320312 6.722656 0.078125 5.390625 0.078125 Z M 5.390625 0.078125 "/></g></g></g><g fill="#000000" fill-opacity="1"><g transform="translate(192.735205, 303.837167)"><g><path d="M 7.609375 0 L 6.921875 -1.984375 L 2.84375 -1.984375 L 2.140625 0 L 0.46875 0 L 3.96875 -9.75 L 5.8125 -9.75 L 9.296875 0 Z M 3.28125 -3.234375 L 6.484375 -3.234375 L 4.890625 -7.8125 Z M 3.28125 -3.234375 "/></g></g></g><g fill="#000000" fill-opacity="1"><g transform="translate(204.461782, 303.837167)"><g><path d="M 2.640625 -3.953125 L 2.640625 0 L 1.046875 0 L 1.046875 -9.734375 L 4.40625 -9.734375 C 5.507812 -9.734375 6.359375 -9.457031 6.953125 -8.90625 C 7.554688 -8.363281 7.859375 -7.671875 7.859375 -6.828125 C 7.859375 -6.179688 7.65625 -5.59375 7.25 -5.0625 C 6.851562 -4.539062 6.25 -4.203125 5.4375 -4.046875 L 8.015625 0 L 6.0625 0 L 3.625 -3.953125 Z M 2.640625 -8.484375 L 2.640625 -5.1875 L 4.40625 -5.1875 C 5.007812 -5.1875 5.460938 -5.332031 5.765625 -5.625 C 6.066406 -5.914062 6.21875 -6.316406 6.21875 -6.828125 C 6.21875 -7.347656 6.066406 -7.753906 5.765625 -8.046875 C 5.460938 -8.335938 5.007812 -8.484375 4.40625 -8.484375 Z M 2.640625 -8.484375 "/></g></g></g><g fill="#000000" fill-opacity="1"><g transform="translate(215.278874, 303.837167)"><g><path d="M 1.046875 0 L 1.046875 -9.734375 L 2.640625 -9.734375 L 2.640625 0 Z M 1.046875 0 "/></g></g></g><g fill="#000000" fill-opacity="1"><g transform="translate(220.946835, 303.837167)"><g><path d="M 7.609375 0 L 6.921875 -1.984375 L 2.84375 -1.984375 L 2.140625 0 L 0.46875 0 L 3.96875 -9.75 L 5.8125 -9.75 L 9.296875 0 Z M 3.28125 -3.234375 L 6.484375 -3.234375 L 4.890625 -7.8125 Z M 3.28125 -3.234375 "/></g></g></g></svg>