<svg xmlns="http://www.w3.org/2000/svg" xmlns:xlink="http://www.w3.org/1999/xlink" width="500" zoomAndPan="magnify" viewBox="0 0 375 374.999991" height="500" preserveAspectRatio="xMidYMid meet" version="1.0"><defs><g/><clipPath id="7cd7bc8e3f"><path d="M 160 90.535156 L 248.210938 90.535156 L 248.210938 212.035156 L 160 212.035156 Z M 160 90.535156 " clip-rule="nonzero"/></clipPath><clipPath id="9cfcd20192"><path d="M 126.710938 124 L 215 124 L 215 179 L 126.710938 179 Z M 126.710938 124 " clip-rule="nonzero"/></clipPath></defs><g clip-path="url(#7cd7bc8e3f)"><path fill="#004aad" d="M 211.027344 212.117188 L 163.984375 212.117188 C 161.953125 212.117188 160.304688 210.46875 160.304688 208.441406 L 160.304688 173.652344 L 164.316406 173.652344 L 164.316406 208.109375 L 210.691406 208.109375 L 210.691406 178.191406 C 210.691406 176.164062 212.339844 174.515625 214.371094 174.515625 L 244.28125 174.515625 L 244.28125 128.140625 L 214.371094 128.140625 C 212.339844 128.140625 210.691406 126.492188 210.691406 124.460938 L 210.691406 94.546875 L 164.316406 94.546875 L 164.316406 126.132812 L 160.304688 126.132812 L 160.304688 94.214844 C 160.304688 92.183594 161.953125 90.535156 163.984375 90.535156 L 211.027344 90.535156 C 213.054688 90.535156 214.703125 92.183594 214.703125 94.214844 L 214.703125 124.125 L 244.617188 124.125 C 246.648438 124.125 248.296875 125.777344 248.296875 127.804688 L 248.296875 174.847656 C 248.296875 176.878906 246.648438 178.527344 244.617188 178.527344 L 214.703125 178.527344 L 214.703125 208.441406 C 214.703125 210.46875 213.054688 212.117188 211.027344 212.117188 Z M 211.027344 212.117188 " fill-opacity="1" fill-rule="nonzero"/></g><g clip-path="url(#9cfcd20192)"><path fill="#38b6ff" d="M 162.3125 124.125 L 126.710938 124.125 L 126.710938 126.132812 C 126.710938 155.027344 150.21875 178.527344 179.105469 178.527344 L 214.703125 178.527344 L 214.703125 176.519531 C 214.703125 147.632812 191.203125 124.125 162.3125 124.125 Z M 210.609375 173.679688 C 183.019531 163.789062 147.222656 137.703125 134.613281 128.140625 L 162.3125 128.140625 C 188.035156 128.140625 209.128906 148.320312 210.609375 173.679688 Z M 130.914062 130.382812 C 141.441406 138.46875 173.789062 162.460938 201.804688 174.519531 L 179.105469 174.519531 C 153.863281 174.515625 133.074219 155.078125 130.914062 130.382812 Z M 130.914062 130.382812 " fill-opacity="1" fill-rule="nonzero"/></g><g fill="#000000" fill-opacity="1"><g transform="translate(70.378627, 256.164607)"><g><path d="M 8.703125 0 L 0.234375 -23.875 L 6.421875 -23.875 L 12.34375 -5.671875 L 18.265625 -23.875 L 24.453125 -23.875 L 15.984375 0 Z M 8.703125 0 "/></g></g></g><g fill="#000000" fill-opacity="1"><g transform="translate(95.059801, 256.164607)"><g><path d="M 2.546875 0 L 2.546875 -23.875 L 8.359375 -23.875 L 8.359375 0 Z M 2.546875 0 "/></g></g></g><g fill="#000000" fill-opacity="1"><g transform="translate(105.972554, 256.164607)"><g><path d="M 0.921875 -19.453125 L 0.921875 -23.875 L 19.75 -23.875 L 19.75 -19.453125 L 13.21875 -19.453125 L 13.21875 0 L 7.40625 0 L 7.40625 -19.453125 Z M 0.921875 -19.453125 "/></g></g></g><g fill="#000000" fill-opacity="1"><g transform="translate(126.642185, 256.164607)"><g><path d="M 0.921875 -19.453125 L 0.921875 -23.875 L 19.75 -23.875 L 19.75 -19.453125 L 13.21875 -19.453125 L 13.21875 0 L 7.40625 0 L 7.40625 -19.453125 Z M 0.921875 -19.453125 "/></g></g></g><g fill="#000000" fill-opacity="1"><g transform="translate(147.311815, 256.164607)"><g><path d="M 17.71875 0 L 16.390625 -4.015625 L 7.8125 -4.015625 L 6.5 0 L 0.3125 0 L 8.609375 -23.9375 L 15.671875 -23.9375 L 23.9375 0 Z M 9.28125 -8.4375 L 14.921875 -8.4375 L 12.109375 -16.9375 Z M 9.28125 -8.4375 "/></g></g></g><g fill="#000000" fill-opacity="1"><g transform="translate(171.551041, 256.164607)"><g/></g></g><g fill="#000000" fill-opacity="1"><g transform="translate(181.749878, 256.164607)"><g><path d="M 2.546875 0 L 2.546875 -23.875 L 18.09375 -23.875 L 18.09375 -19.453125 L 8.359375 -19.453125 L 8.359375 -14.3125 L 15.640625 -14.3125 L 15.640625 -9.890625 L 8.359375 -9.890625 L 8.359375 0 Z M 2.546875 0 "/></g></g></g><g fill="#000000" fill-opacity="1"><g transform="translate(201.297633, 256.164607)"><g><path d="M 17.71875 0 L 16.390625 -4.015625 L 7.8125 -4.015625 L 6.5 0 L 0.3125 0 L 8.609375 -23.9375 L 15.671875 -23.9375 L 23.9375 0 Z M 9.28125 -8.4375 L 14.921875 -8.4375 L 12.109375 -16.9375 Z M 9.28125 -8.4375 "/></g></g></g><g fill="#000000" fill-opacity="1"><g transform="translate(225.536858, 256.164607)"><g><path d="M 8.359375 -9.28125 L 8.359375 0 L 2.546875 0 L 2.546875 -23.875 L 11.96875 -23.875 C 14.726562 -23.875 16.878906 -23.15625 18.421875 -21.71875 C 19.960938 -20.289062 20.734375 -18.570312 20.734375 -16.5625 C 20.734375 -15.175781 20.3125 -13.828125 19.46875 -12.515625 C 18.632812 -11.203125 17.269531 -10.269531 15.375 -9.71875 L 21.21875 0 L 14.421875 0 L 9.046875 -9.28125 Z M 8.359375 -19.453125 L 8.359375 -13.703125 L 11.96875 -13.703125 C 12.851562 -13.703125 13.550781 -13.960938 14.0625 -14.484375 C 14.570312 -15.003906 14.828125 -15.6875 14.828125 -16.53125 C 14.828125 -17.382812 14.566406 -18.082031 14.046875 -18.625 C 13.523438 -19.175781 12.832031 -19.453125 11.96875 -19.453125 Z M 8.359375 -19.453125 "/></g></g></g><g fill="#000000" fill-opacity="1"><g transform="translate(248.246261, 256.164607)"><g><path d="M 29.578125 -23.875 L 29.578125 0 L 23.765625 0 L 23.765625 -13.46875 L 18.21875 0 L 13.90625 0 L 8.359375 -13.46875 L 8.359375 0 L 2.546875 0 L 2.546875 -23.875 L 9.21875 -23.875 L 16.078125 -7.40625 L 22.921875 -23.875 Z M 29.578125 -23.875 "/></g></g></g><g fill="#000000" fill-opacity="1"><g transform="translate(280.372571, 256.164607)"><g><path d="M 17.71875 0 L 16.390625 -4.015625 L 7.8125 -4.015625 L 6.5 0 L 0.3125 0 L 8.609375 -23.9375 L 15.671875 -23.9375 L 23.9375 0 Z M 9.28125 -8.4375 L 14.921875 -8.4375 L 12.109375 -16.9375 Z M 9.28125 -8.4375 "/></g></g></g><g fill="#000000" fill-opacity="1"><g transform="translate(144.289742, 279.864562)"><g><path d="M 2.640625 -1.21875 L 4.234375 -1.21875 C 5.359375 -1.21875 6.222656 -1.539062 6.828125 -2.1875 C 7.441406 -2.832031 7.75 -3.71875 7.75 -4.84375 C 7.75 -5.96875 7.441406 -6.847656 6.828125 -7.484375 C 6.222656 -8.117188 5.359375 -8.4375 4.234375 -8.4375 L 2.640625 -8.4375 Z M 4.234375 -9.734375 C 5.796875 -9.734375 7.046875 -9.289062 7.984375 -8.40625 C 8.921875 -7.519531 9.390625 -6.328125 9.390625 -4.828125 C 9.390625 -3.335938 8.921875 -2.160156 7.984375 -1.296875 C 7.046875 -0.429688 5.796875 0 4.234375 0 L 1.046875 0 L 1.046875 -9.734375 Z M 4.234375 -9.734375 "/></g></g></g><g fill="#000000" fill-opacity="1"><g transform="translate(156.184225, 279.864562)"><g><path d="M 2.640625 -3.953125 L 2.640625 0 L 1.046875 0 L 1.046875 -9.734375 L 4.40625 -9.734375 C 5.507812 -9.734375 6.359375 -9.457031 6.953125 -8.90625 C 7.554688 -8.363281 7.859375 -7.671875 7.859375 -6.828125 C 7.859375 -6.179688 7.65625 -5.59375 7.25 -5.0625 C 6.851562 -4.539062 6.25 -4.203125 5.4375 -4.046875 L 8.015625 0 L 6.0625 0 L 3.625 -3.953125 Z M 2.640625 -8.484375 L 2.640625 -5.1875 L 4.40625 -5.1875 C 5.007812 -5.1875 5.460938 -5.332031 5.765625 -5.625 C 6.066406 -5.914062 6.21875 -6.316406 6.21875 -6.828125 C 6.21875 -7.347656 6.066406 -7.753906 5.765625 -8.046875 C 5.460938 -8.335938 5.007812 -8.484375 4.40625 -8.484375 Z M 2.640625 -8.484375 "/></g></g></g><g fill="#000000" fill-opacity="1"><g transform="translate(167.001316, 279.864562)"><g><path d="M 5.484375 -1.34375 C 6.460938 -1.34375 7.257812 -1.664062 7.875 -2.3125 C 8.5 -2.96875 8.8125 -3.820312 8.8125 -4.875 C 8.8125 -5.9375 8.5 -6.789062 7.875 -7.4375 C 7.257812 -8.082031 6.460938 -8.40625 5.484375 -8.40625 C 4.503906 -8.40625 3.703125 -8.082031 3.078125 -7.4375 C 2.460938 -6.789062 2.15625 -5.9375 2.15625 -4.875 C 2.15625 -3.820312 2.460938 -2.96875 3.078125 -2.3125 C 3.703125 -1.664062 4.503906 -1.34375 5.484375 -1.34375 Z M 5.5 0.09375 C 4.101562 0.09375 2.921875 -0.375 1.953125 -1.3125 C 0.992188 -2.25 0.515625 -3.4375 0.515625 -4.875 C 0.515625 -6.320312 0.992188 -7.515625 1.953125 -8.453125 C 2.921875 -9.390625 4.101562 -9.859375 5.5 -9.859375 C 6.894531 -9.859375 8.066406 -9.390625 9.015625 -8.453125 C 9.972656 -7.515625 10.453125 -6.320312 10.453125 -4.875 C 10.453125 -3.4375 9.972656 -2.25 9.015625 -1.3125 C 8.066406 -0.375 6.894531 0.09375 5.5 0.09375 Z M 5.5 0.09375 "/></g></g></g><g fill="#000000" fill-opacity="1"><g transform="translate(179.945221, 279.864562)"><g><path d="M 5.390625 0.078125 C 4.066406 0.078125 2.921875 -0.382812 1.953125 -1.3125 C 0.992188 -2.25 0.515625 -3.4375 0.515625 -4.875 C 0.515625 -6.320312 0.992188 -7.515625 1.953125 -8.453125 C 2.921875 -9.390625 4.097656 -9.859375 5.484375 -9.859375 C 6.523438 -9.859375 7.445312 -9.601562 8.25 -9.09375 C 9.0625 -8.582031 9.648438 -7.863281 10.015625 -6.9375 L 8.09375 -6.9375 C 7.570312 -7.914062 6.703125 -8.40625 5.484375 -8.40625 C 4.503906 -8.40625 3.703125 -8.082031 3.078125 -7.4375 C 2.460938 -6.789062 2.15625 -5.9375 2.15625 -4.875 C 2.15625 -3.820312 2.460938 -2.972656 3.078125 -2.328125 C 3.703125 -1.679688 4.476562 -1.359375 5.40625 -1.359375 C 6.332031 -1.359375 7.066406 -1.601562 7.609375 -2.09375 C 8.148438 -2.582031 8.476562 -3.25 8.59375 -4.09375 L 4.9375 -4.09375 L 4.9375 -5.328125 L 10.296875 -5.328125 L 10.296875 -4.09375 C 10.148438 -2.925781 9.628906 -1.9375 8.734375 -1.125 C 7.835938 -0.320312 6.722656 0.078125 5.390625 0.078125 Z M 5.390625 0.078125 "/></g></g></g><g fill="#000000" fill-opacity="1"><g transform="translate(192.735205, 279.864562)"><g><path d="M 7.609375 0 L 6.921875 -1.984375 L 2.84375 -1.984375 L 2.140625 0 L 0.46875 0 L 3.96875 -9.75 L 5.8125 -9.75 L 9.296875 0 Z M 3.28125 -3.234375 L 6.484375 -3.234375 L 4.890625 -7.8125 Z M 3.28125 -3.234375 "/></g></g></g><g fill="#000000" fill-opacity="1"><g transform="translate(204.461782, 279.864562)"><g><path d="M 2.640625 -3.953125 L 2.640625 0 L 1.046875 0 L 1.046875 -9.734375 L 4.40625 -9.734375 C 5.507812 -9.734375 6.359375 -9.457031 6.953125 -8.90625 C 7.554688 -8.363281 7.859375 -7.671875 7.859375 -6.828125 C 7.859375 -6.179688 7.65625 -5.59375 7.25 -5.0625 C 6.851562 -4.539062 6.25 -4.203125 5.4375 -4.046875 L 8.015625 0 L 6.0625 0 L 3.625 -3.953125 Z M 2.640625 -8.484375 L 2.640625 -5.1875 L 4.40625 -5.1875 C 5.007812 -5.1875 5.460938 -5.332031 5.765625 -5.625 C 6.066406 -5.914062 6.21875 -6.316406 6.21875 -6.828125 C 6.21875 -7.347656 6.066406 -7.753906 5.765625 -8.046875 C 5.460938 -8.335938 5.007812 -8.484375 4.40625 -8.484375 Z M 2.640625 -8.484375 "/></g></g></g><g fill="#000000" fill-opacity="1"><g transform="translate(215.278874, 279.864562)"><g><path d="M 1.046875 0 L 1.046875 -9.734375 L 2.640625 -9.734375 L 2.640625 0 Z M 1.046875 0 "/></g></g></g><g fill="#000000" fill-opacity="1"><g transform="translate(220.946835, 279.864562)"><g><path d="M 7.609375 0 L 6.921875 -1.984375 L 2.84375 -1.984375 L 2.140625 0 L 0.46875 0 L 3.96875 -9.75 L 5.8125 -9.75 L 9.296875 0 Z M 3.28125 -3.234375 L 6.484375 -3.234375 L 4.890625 -7.8125 Z M 3.28125 -3.234375 "/></g></g></g></svg>